# xmcd CD database file
#
# Track frame offsets:
#	182
#	12988
#	25974
#	38524
#	51425
#	62907
#	77419
#	92354
#	103588
#	117141
#	130318
#	143411
#	155751
#	169769
#	181909
#	193885
#	207836
#	221749
#	233832
#	244695
#	255736
#	267359
#	279170
#	293043
#	305826
#
# Disc length: 4227 seconds
#
# Revision: 0
# Processed by: cddbd v1.5.1PL0 Copyright (c) Steve Scherf et al.
# Submitted via: CDex 1.51
#
DISCID=62108119
DTITLE=Buddy Tate - 1945-1950 [Classics #1207, 2001]
DYEAR=1945
DGENRE=Jazz
TTITLE0=Grand Slam
TTITLE1=Baby It's Up to You
TTITLE2=Peek-A-Boo
TTITLE3=How Am I to Know
TTITLE4=Vine Street Breakdown
TTITLE5=The Things You Done for Me Baby
TTITLE6=Ballin' from Day to Day
TTITLE7=Tate's A-Jumpin'
TTITLE8=Fair Weather Friend
TTITLE9=When the Mission Bells Ring
TTITLE10=My Big Thrill
TTITLE11=Kansas City Local
TTITLE12=Wee Baby Blues (Early Morning Blues)
TTITLE13=Six-Foot-Two Blues
TTITLE14=Blowin' for Snake
TTITLE15=Good Morning Judge
TTITLE16=Blue and Sentimental
TTITLE17=Swinging Away with Willie and Ray
TTITLE18=Dear Mary
TTITLE19=Two Left Feet
TTITLE20=Skip a Page
TTITLE21=Hey Bruz
TTITLE22=The Spot
TTITLE23=Heart Breakin' Baby
TTITLE24=Rock with Me Mama
EXTD=YEAR: 1945
EXTT0=
EXTT1=
EXTT2=
EXTT3=
EXTT4=
EXTT5=
EXTT6=
EXTT7=
EXTT8=
EXTT9=
EXTT10=
EXTT11=
EXTT12=
EXTT13=
EXTT14=
EXTT15=
EXTT16=
EXTT17=
EXTT18=
EXTT19=
EXTT20=
EXTT21=
EXTT22=
EXTT23=
EXTT24=
PLAYORDER=
